<svg xmlns="http://www.w3.org/2000/svg" width="1024" height="1024" viewBox="0 0 1024 1024">
<g>
<path d="M 351.17 794.92 C342.74,795.52 327.60,796.00 317.53,796.00 C301.27,796.00 298.97,795.79 296.96,794.17 C293.58,791.43 294.80,788.64 304.56,776.86 C324.54,752.72 331.86,741.52 336.18,728.50 C339.56,718.29 339.39,698.10 335.75,678.00 C327.27,631.14 324.79,606.40 324.80,568.50 C324.81,523.48 329.49,494.60 342.61,458.50 C353.13,429.57 367.72,399.87 390.69,360.63 C403.91,338.04 410.37,325.86 412.45,319.61 C413.34,316.92 415.41,306.80 417.05,297.11 C418.70,287.42 421.17,275.45 422.54,270.50 C430.87,240.59 452.47,215.29 479.75,203.50 C493.03,197.75 501.97,195.79 517.38,195.25 C543.31,194.34 558.14,198.81 582.53,214.89 C591.53,220.82 597.77,223.31 609.06,225.45 C617.20,227.00 647.62,230.25 665.50,231.49 C678.82,232.41 697.67,234.89 704.50,236.63 C711.86,238.49 717.97,241.96 724.24,247.82 C729.24,252.49 730.18,255.31 727.25,256.84 C726.29,257.35 721.00,258.08 715.50,258.46 C678.69,261.06 639.94,269.62 618.50,279.88 C595.64,290.82 583.00,306.09 583.00,322.78 C583.00,327.98 582.89,328.20 580.75,327.53 C579.51,327.14 568.38,326.47 556.00,326.04 C539.34,325.46 532.38,324.84 529.17,323.64 C515.89,318.70 503.48,308.90 499.20,299.97 C495.66,292.57 494.94,286.04 495.65,267.87 L 496.31 251.07 L 493.72 247.15 C486.28,235.92 465.83,236.15 453.08,247.62 C440.74,258.72 437.39,278.80 445.26,294.46 C448.25,300.40 457.67,309.72 464.62,313.61 C477.25,320.67 506.25,329.97 515.70,329.99 C520.87,330.00 524.76,331.67 525.57,334.23 C526.57,337.37 514.38,356.76 510.00,359.00 C505.90,361.10 495.80,371.42 491.09,378.33 C486.33,385.30 480.55,398.17 477.64,408.27 C472.09,427.49 471.74,451.18 476.52,484.00 C484.20,536.75 484.87,567.96 478.94,596.77 C470.17,639.44 441.07,682.06 420.78,681.98 C412.53,681.95 404.00,674.54 404.00,667.40 C404.00,665.59 404.88,659.47 405.96,653.80 C410.38,630.56 411.40,619.98 411.44,597.00 C411.48,567.99 409.55,555.74 398.89,517.50 L 395.55 505.50 L 394.87 511.50 C391.62,540.45 389.59,611.55 390.96,648.54 C391.51,663.41 392.19,676.91 392.46,678.54 C392.74,680.17 393.67,686.00 394.54,691.50 C398.69,717.74 407.69,745.47 420.07,770.13 C422.18,774.33 423.63,778.04 423.29,778.38 C422.94,778.72 421.74,779.00 420.62,779.00 C419.49,779.00 412.83,780.81 405.81,783.02 C380.86,790.89 367.64,793.77 351.17,794.92 ZM 696.20 660.25 C690.49,666.34 685.55,662.86 680.00,648.86 C674.52,635.02 664.80,618.80 654.79,606.84 L 651.09 602.40 L 652.53 589.45 C655.75,560.60 654.05,504.99 648.96,473.23 C647.88,466.48 647.01,460.18 647.03,459.23 C647.11,454.21 668.54,486.18 677.80,505.12 C686.56,523.03 690.89,534.15 695.97,551.74 C710.29,601.35 710.39,645.12 696.20,660.25 ZM 573.04 821.46 C571.51,822.85 568.71,823.35 560.22,823.75 L 549.35 824.27 L 548.08 821.18 C546.02,816.22 536.81,808.32 528.27,804.19 L 520.45 800.41 L 522.30 794.45 C523.74,789.84 524.07,786.35 523.74,778.95 L 523.32 769.40 L 532.36 768.17 C542.43,766.80 555.85,762.62 564.97,758.01 C568.29,756.34 571.00,755.15 571.00,755.36 C571.00,755.57 570.33,757.66 569.50,760.00 C567.30,766.23 567.54,776.73 569.97,780.71 C572.10,784.21 579.19,788.27 587.42,790.72 L 592.48 792.22 L 587.90 794.55 C579.41,798.86 575.02,806.04 575.01,815.60 C575.00,818.39 574.38,820.25 573.04,821.46 ZM 589.00 264.62 C589.00,268.91 589.16,268.91 611.50,264.97 C620.85,263.33 635.47,260.86 644.00,259.49 C669.16,255.45 686.25,252.15 687.27,251.13 C687.86,250.54 687.37,249.73 685.92,248.96 C682.86,247.32 638.06,245.90 614.75,246.70 L 597.00 247.31 L 594.59 250.47 C591.28,254.81 589.00,260.58 589.00,264.62 ZM 542.45 251.55 C545.67,254.76 551.42,254.89 554.69,251.83 C556.36,250.25 557.00,248.54 557.00,245.64 C557.00,240.17 553.99,237.00 548.78,237.00 C540.87,237.00 536.94,246.03 542.45,251.55 Z" fill="rgb(23,33,41)"/>
<path d="M 547.80 826.53 C545.48,829.47 544.52,829.60 530.50,828.89 C523.90,828.55 500.37,828.21 478.22,828.14 C435.87,827.99 433.68,827.78 429.85,823.39 C427.46,820.64 426.23,812.53 425.54,795.00 L 424.94 779.50 L 441.02 779.82 C455.69,780.11 462.44,779.52 467.25,777.52 C468.76,776.89 469.00,777.38 469.00,781.14 C469.01,786.02 471.58,791.02 475.34,793.49 C478.62,795.63 490.88,797.58 517.94,800.26 C520.11,800.47 520.59,799.83 522.27,794.50 C522.98,792.26 523.42,790.32 523.65,788.09 C523.42,790.32 522.99,792.26 522.30,794.45 L 520.45 800.41 L 528.27 804.19 C536.81,808.32 546.02,816.22 548.08,821.18 L 549.35 824.27 L 560.22 823.75 C560.91,823.72 561.57,823.68 562.19,823.65 C561.60,823.69 560.99,823.73 560.37,823.76 C550.73,824.25 549.35,824.55 547.80,826.53 ZM 573.04 821.46 C574.38,820.25 575.00,818.39 575.01,815.60 C575.02,806.04 579.41,798.86 587.90,794.55 L 592.48 792.22 L 587.42 790.72 C579.25,788.29 572.20,784.27 570.01,780.79 C573.46,786.27 590.13,793.00 600.31,793.00 C608.01,793.00 622.62,796.24 629.74,799.52 C637.52,803.11 646.54,811.32 647.67,815.84 C648.93,820.83 647.69,821.00 609.01,821.00 C584.39,821.00 573.06,821.34 572.30,822.10 C572.13,822.27 571.58,822.45 570.75,822.63 C571.80,822.33 572.50,821.95 573.04,821.46 ZM 589.00 264.62 C589.00,260.58 591.28,254.81 594.59,250.47 L 597.00 247.31 L 614.75 246.70 C638.06,245.90 682.86,247.32 685.92,248.96 C687.37,249.73 687.86,250.54 687.27,251.13 C686.25,252.15 669.16,255.45 644.00,259.49 C635.47,260.86 620.85,263.33 611.50,264.97 C589.16,268.91 589.00,268.91 589.00,264.62 Z" fill="rgb(228,99,52)"/>
<path d="M 583.54 316.85 C583.21,319.02 583.00,321.37 583.00,323.20 C583.00,330.09 586.56,338.65 593.67,348.87 C596.10,352.37 597.96,355.37 597.80,355.53 C597.63,355.69 578.60,356.14 555.50,356.54 C523.77,357.08 514.24,357.01 508.61,359.86 C509.13,359.50 509.59,359.21 510.00,359.00 C514.38,356.76 526.57,337.37 525.57,334.23 C524.76,331.67 520.87,330.00 515.70,329.99 C506.25,329.97 477.25,320.67 464.62,313.61 C457.67,309.72 448.25,300.40 445.26,294.46 C437.39,278.80 440.74,258.72 453.08,247.62 C465.83,236.15 486.28,235.92 493.72,247.15 L 496.31 251.07 L 495.65 267.87 C494.94,286.04 495.66,292.57 499.20,299.97 C503.48,308.90 515.89,318.70 529.17,323.64 C532.38,324.84 539.34,325.46 556.00,326.04 C568.38,326.47 579.51,327.14 580.75,327.53 C582.89,328.20 583.00,327.98 583.00,322.78 C583.00,320.78 583.18,318.80 583.54,316.85 ZM 627.26 276.14 C613.33,281.65 601.89,288.87 594.19,296.88 C600.10,290.52 608.28,284.77 618.50,279.88 C621.16,278.60 624.09,277.35 627.26,276.14 ZM 478.54 405.33 C475.48,415.15 473.75,425.60 473.30,437.46 C473.69,426.54 475.14,416.95 477.64,408.27 C477.91,407.31 478.22,406.33 478.54,405.33 ZM 668.01 264.87 C658.98,266.72 650.01,268.92 640.93,271.52 C649.19,269.05 658.36,266.80 668.01,264.87 ZM 495.81 372.28 C492.30,376.43 489.64,380.35 487.03,385.21 C488.41,382.59 489.79,380.24 491.09,378.33 C492.35,376.48 493.99,374.39 495.81,372.28 Z" fill="rgb(250,183,11)"/>
<path d="M 0.00 512.00 L 0.00 0.00 L 512.00 0.00 L 1024.00 0.00 L 1024.00 512.00 L 1024.00 1024.00 L 512.00 1024.00 L 0.00 1024.00 L 0.00 512.00 ZM 547.80 826.53 C549.35,824.55 550.73,824.25 560.37,823.76 C566.32,823.45 571.69,822.71 572.30,822.10 C573.06,821.34 584.39,821.00 609.01,821.00 C647.69,821.00 648.93,820.83 647.67,815.84 C646.54,811.32 637.52,803.11 629.74,799.52 C622.62,796.24 608.01,793.00 600.31,793.00 C590.09,793.00 573.32,786.21 569.97,780.72 C567.54,776.73 567.30,766.24 569.50,760.00 C570.33,757.66 571.00,755.57 571.00,755.36 C571.00,755.15 568.29,756.34 564.97,758.01 C555.85,762.62 542.43,766.80 532.36,768.17 L 523.32 769.40 L 523.74 778.95 C524.07,786.41 523.75,789.81 522.27,794.50 C520.59,799.83 520.11,800.47 517.94,800.26 C490.88,797.58 478.62,795.63 475.34,793.49 C471.58,791.02 469.01,786.02 469.00,781.14 C469.00,777.38 468.76,776.89 467.25,777.52 C462.44,779.52 455.69,780.11 441.02,779.82 L 424.94 779.50 L 425.54 795.00 C426.23,812.53 427.46,820.64 429.85,823.39 C433.68,827.78 435.87,827.99 478.22,828.14 C500.37,828.21 523.90,828.55 530.50,828.89 C544.52,829.60 545.48,829.47 547.80,826.53 ZM 351.17 794.92 C367.64,793.77 380.86,790.89 405.81,783.02 C412.83,780.81 419.49,779.00 420.62,779.00 C421.74,779.00 422.94,778.72 423.29,778.38 C423.63,778.04 422.18,774.33 420.07,770.13 C407.69,745.47 398.69,717.74 394.54,691.50 C393.67,686.00 392.74,680.17 392.46,678.54 C392.19,676.91 391.51,663.41 390.96,648.54 C389.59,611.55 391.62,540.45 394.87,511.50 L 395.55 505.50 L 398.89 517.50 C409.55,555.74 411.48,567.99 411.44,597.00 C411.40,619.98 410.38,630.56 405.96,653.80 C404.88,659.47 404.00,665.59 404.00,667.40 C404.00,674.54 412.53,681.95 420.78,681.98 C441.07,682.06 470.17,639.44 478.94,596.77 C484.87,567.96 484.20,536.75 476.52,484.00 C470.42,442.09 472.53,415.85 483.98,391.33 C488.78,381.06 492.76,375.20 500.44,367.15 C510.33,356.78 507.28,357.37 555.50,356.54 C578.60,356.14 597.63,355.69 597.80,355.53 C597.96,355.37 596.10,352.37 593.67,348.87 C586.56,338.65 583.00,330.09 583.00,323.20 C583.00,319.97 583.65,315.14 584.46,312.48 C589.46,295.85 611.08,280.10 640.50,271.64 C665.24,264.54 689.24,260.32 715.50,258.46 C721.00,258.08 726.29,257.35 727.25,256.84 C730.18,255.31 729.24,252.49 724.24,247.82 C717.97,241.96 711.86,238.49 704.50,236.63 C697.67,234.89 678.82,232.41 665.50,231.49 C647.62,230.25 617.20,227.00 609.06,225.45 C597.77,223.31 591.53,220.82 582.53,214.89 C558.14,198.81 543.31,194.34 517.38,195.25 C501.97,195.79 493.03,197.75 479.75,203.50 C452.47,215.29 430.87,240.59 422.54,270.50 C421.17,275.45 418.70,287.42 417.05,297.11 C415.41,306.80 413.34,316.92 412.45,319.61 C410.37,325.86 403.91,338.04 390.69,360.63 C367.72,399.87 353.13,429.57 342.61,458.50 C329.49,494.60 324.81,523.48 324.80,568.50 C324.79,606.40 327.27,631.14 335.75,678.00 C339.39,698.10 339.56,718.29 336.18,728.50 C331.86,741.52 324.54,752.72 304.56,776.86 C294.80,788.64 293.58,791.43 296.96,794.17 C298.97,795.79 301.27,796.00 317.53,796.00 C327.60,796.00 342.74,795.52 351.17,794.92 ZM 696.20 660.25 C710.39,645.12 710.29,601.35 695.97,551.74 C690.89,534.15 686.56,523.03 677.80,505.12 C668.54,486.18 647.11,454.21 647.03,459.23 C647.01,460.18 647.88,466.48 648.96,473.23 C654.05,504.99 655.75,560.60 652.53,589.45 L 651.09 602.40 L 654.79 606.84 C664.80,618.80 674.52,635.02 680.00,648.86 C685.55,662.86 690.49,666.34 696.20,660.25 ZM 542.45 251.55 C536.94,246.03 540.87,237.00 548.78,237.00 C553.99,237.00 557.00,240.17 557.00,245.64 C557.00,248.54 556.36,250.25 554.69,251.83 C551.42,254.89 545.67,254.76 542.45,251.55 Z" fill="rgb(254,254,253)"/>
</g>
</svg>